<svg xmlns="http://www.w3.org/2000/svg" version="1.1" xmlns:xlink="http://www.w3.org/1999/xlink" width="800px" height="800px"><svg height="800px" width="800px" version="1.1" id="SvgjsSvg1011" xmlns="http://www.w3.org/2000/svg" xmlns:xlink="http://www.w3.org/1999/xlink" viewBox="0 0 511.659 511.659" xml:space="preserve" fill="#000000">

<g id="SvgjsG1010" stroke-width="0"></g>

<g id="SvgjsG1009" stroke-linecap="round" stroke-linejoin="round"></g>

<g id="SvgjsG1008"> <path style="fill:#AAB2BC;" d="M350.723,373.365c1.374,5.137-1.671,10.431-6.809,11.805l-242.008,64.85 c-5.137,1.374-10.415-1.687-11.789-6.824L0.33,108.121c-1.374-5.138,1.671-10.416,6.808-11.79L249.14,31.482 c5.137-1.374,10.431,1.671,11.805,6.808L350.723,373.365z"></path> <path style="fill:#434A54;" d="M87.759,126.374c-1.421-5.31-6.886-8.464-12.195-7.042l-9.635,2.577l-2.576-9.635 c-1.421-5.309-6.886-8.463-12.211-7.042c-5.309,1.421-8.463,6.886-7.042,12.211l2.577,9.618l-9.635,2.593 c-5.309,1.421-8.463,6.886-7.042,12.195c1.421,5.324,6.886,8.479,12.211,7.058l9.619-2.592l2.592,9.634 c1.421,5.309,6.886,8.479,12.195,7.042c5.325-1.421,8.479-6.887,7.058-12.195l-2.576-9.635l9.619-2.576 C86.025,137.164,89.195,131.699,87.759,126.374z"></path> <path style="fill:#CCD1D9;" d="M355.204,408.296c0,5.324-4.31,9.635-9.634,9.635H95.035c-5.325,0-9.634-4.311-9.634-9.635V61.4 c0-5.309,4.31-9.634,9.634-9.634H345.57c5.324,0,9.634,4.325,9.634,9.634V408.296z"></path> <g> <path style="fill:#434A54;" d="M168.004,96.05c-5.715-15.693-23.781-22.174-27.357-23.313l-3.029-0.968l-3.045,0.968 c-3.56,1.14-21.626,7.62-27.342,23.329c-4.778,12.71-0.125,26.327,11.087,32.401l0.406,0.218c2.249,1.093,4.716,1.64,7.37,1.64l0,0 c4.451,0,8.573-1.593,11.461-2.889c2.92,1.312,7.058,2.904,11.524,2.904c2.67,0,5.168-0.562,7.433-1.655l0.406-0.218 C168.129,122.392,172.782,108.776,168.004,96.05z"></path> <path style="fill:#434A54;" d="M147.58,131.512v-7.371h-19.925v7.371c-5.512,0-9.978,4.45-9.978,9.962 c0,5.496,4.466,9.962,9.978,9.962h19.925c5.512,0,9.962-4.466,9.962-9.962C157.542,135.962,153.092,131.512,147.58,131.512z"></path> </g> <path style="fill:#D7DADD;" d="M350.504,443.195c-1.39,5.138-6.668,8.198-11.805,6.824L96.706,385.17 c-5.153-1.374-8.198-6.668-6.824-11.805L179.668,38.29c1.374-5.137,6.667-8.182,11.805-6.808l241.993,64.849 c5.137,1.374,8.197,6.652,6.808,11.79L350.504,443.195z"></path> <polygon style="fill:#ED5564;" points="227.341,61.728 185.946,91.912 206.698,138.742 248.093,108.558 "></polygon> <path style="fill:#E6E9ED;" d="M336.919,475.69c-2.671,4.606-8.558,6.184-13.163,3.528L106.793,353.956 c-4.622-2.671-6.199-8.558-3.529-13.164L276.707,40.367c2.654-4.606,8.558-6.184,13.164-3.529l216.971,125.279 c4.605,2.655,6.184,8.558,3.529,13.164L336.919,475.69z"></path> <g> <path style="fill:#ED5564;" d="M287.451,126.171l3.123,0.671c1.217,0.265,5.59,1.125,11.242,1.125l0,0 c9.807,0,18.145-2.639,24.109-7.651c10.494-8.62,13.273-22.735,6.605-33.604l-0.25-0.391c-4.419-6.527-12.008-7.823-16.942-8.338 c-2.842-3.919-7.933-9.978-15.786-10.556l-0.453-0.031c-0.219,0-0.453,0-0.672,0c-12.602,0-22.938,9.259-25.141,22.548 c-2.881,16.442,9.51,31.089,12.024,33.869L287.451,126.171z"></path> <path style="fill:#ED5564;" d="M341.775,401.472l-0.25-0.39c-4.435-6.527-12.008-7.823-16.942-8.339 c-2.842-3.919-7.933-9.993-15.802-10.556l-0.453-0.031c-0.219,0-0.438,0-0.656,0c-12.617,0-22.938,9.26-25.141,22.548 c-2.904,16.443,9.51,31.09,12.024,33.869l2.14,2.358l3.123,0.671c1.201,0.266,5.59,1.124,11.242,1.124l0,0 c9.807,0,18.129-2.639,24.094-7.651C345.648,426.456,348.443,412.324,341.775,401.472z"></path> <path style="fill:#ED5564;" d="M356.937,236.273l-0.234-0.391c-6.605-9.729-20.893-12.352-29.621-13.039 c-1.188-1.733-2.718-3.763-4.467-5.856c-7.011-8.244-14.271-12.71-21.564-13.241l-0.452-0.016c-0.344-0.016-0.688-0.016-1.03-0.016 c-19.551,0-35.595,14.6-39.046,35.493c-4.934,27.841,18.074,54.114,20.714,57.035l2.154,2.357l3.107,0.672 c1.483,0.327,9.4,1.936,19.534,1.936l0,0c16.583,0,30.496-4.325,40.225-12.508c8.245-6.745,13.601-15.428,15.521-25.054 C363.668,254.152,361.949,244.424,356.937,236.273z"></path> </g> </g>

</svg><style>@media (prefers-color-scheme: light) { :root { filter: none; } }
@media (prefers-color-scheme: dark) { :root { filter: none; } }
</style></svg>