<?xml version="1.0" encoding="UTF-8" standalone="no"?>
<svg xmlns="http://www.w3.org/2000/svg" xmlns:xlink="http://www.w3.org/1999/xlink" class="card" face="3H" height="94mm" preserveAspectRatio="none" viewBox="-132 -180 264 360" width="69mm"><symbol id="SH3" viewBox="-600 -600 1200 1200" preserveAspectRatio="xMinYMid"><path d="M0 -300C0 -400 100 -500 200 -500C300 -500 400 -400 400 -250C400 0 0 400 0 500C0 400 -400 0 -400 -250C-400 -400 -300 -500 -200 -500C-100 -500 0 -400 -0 -300Z" fill="red"></path></symbol><symbol id="VH3" viewBox="-500 -500 1000 1000" preserveAspectRatio="xMinYMid"><path d="M-250 -320L-250 -460L200 -460L-110 -80C-100 -90 -50 -120 0 -120C200 -120 250 0 250 150C250 350 170 460 -30 460C-230 460 -260 300 -260 300" stroke="red" stroke-width="80" stroke-linecap="square" stroke-miterlimit="1.5" fill="none"></path></symbol><rect x="-240" y="-336" width="480" height="672" fill="white"></rect><rect width="239" height="335" x="-119.5" y="-167.5" rx="12" ry="12" fill="white" stroke="black"></rect><use xlink:href="#VH3" height="32" x="-112.4" y="-154"></use><use xlink:href="#SH3" height="26.769" x="-109.784" y="-117"></use><use xlink:href="#SH3" height="65" x="-32.5" y="-133.084"></use><use xlink:href="#SH3" height="65" x="-32.5" y="-32.5"></use><g transform="rotate(180)"><use xlink:href="#VH3" height="32" x="-112.4" y="-154"></use><use xlink:href="#SH3" height="26.769" x="-109.784" y="-117"></use><use xlink:href="#SH3" height="65" x="-32.5" y="-133.084"></use></g></svg>