<?xml version="1.0" encoding="UTF-8" standalone="no"?>
<svg xmlns="http://www.w3.org/2000/svg" xmlns:xlink="http://www.w3.org/1999/xlink" class="card" face="2S" height="94mm" preserveAspectRatio="none" viewBox="-132 -180 264 360" width="69mm"><symbol id="SS2" viewBox="-600 -600 1200 1200" preserveAspectRatio="xMinYMid"><path d="M0 -500C100 -250 355 -100 355 185A150 150 0 0 1 55 185A10 10 0 0 0 35 185C35 385 85 400 130 500L-130 500C-85 400 -35 385 -35 185A10 10 0 0 0 -55 185A150 150 0 0 1 -355 185C-355 -100 -100 -250 0 -500Z" fill="black"></path></symbol><symbol id="VS2" viewBox="-500 -500 1000 1000" preserveAspectRatio="xMinYMid"><path d="M-225 -225C-245 -265 -200 -460 0 -460C 200 -460 225 -325 225 -225C225 -25 -225 160 -225 460L225 460L225 300" stroke="black" stroke-width="80" stroke-linecap="square" stroke-miterlimit="1.5" fill="none"></path></symbol><rect x="-240" y="-336" width="480" height="672" fill="white"></rect><rect width="239" height="335" x="-119.5" y="-167.5" rx="12" ry="12" fill="white" stroke="black"></rect><use xlink:href="#VS2" height="32" x="-112.4" y="-154"></use><use xlink:href="#SS2" height="26.769" x="-109.784" y="-117"></use><use xlink:href="#SS2" height="65" x="-32.5" y="-133.084"></use><g transform="rotate(180)"><use xlink:href="#VS2" height="32" x="-112.4" y="-154"></use><use xlink:href="#SS2" height="26.769" x="-109.784" y="-117"></use><use xlink:href="#SS2" height="65" x="-32.5" y="-133.084"></use></g></svg>