<?xml version="1.0" encoding="UTF-8" standalone="no"?>
<svg xmlns="http://www.w3.org/2000/svg" xmlns:xlink="http://www.w3.org/1999/xlink" class="card" face="TC" height="94mm" preserveAspectRatio="none" viewBox="-132 -180 264 360" width="69mm"><symbol id="SCT" viewBox="-600 -600 1200 1200" preserveAspectRatio="xMinYMid"><path d="M30 150C35 385 85 400 130 500L-130 500C-85 400 -35 385 -30 150A10 10 0 0 0 -50 150A210 210 0 1 1 -124 -51A10 10 0 0 0 -110 -65A230 230 0 1 1 110 -65A10 10 0 0 0 124 -51A210 210 0 1 1 50 150A10 10 0 0 0 30 150Z" fill="black"></path></symbol><symbol id="VCT" viewBox="-500 -500 1000 1000" preserveAspectRatio="xMinYMid"><path d="M-260 430L-260 -430M-50 0L-50 -310A150 150 0 0 1 250 -310L250 310A150 150 0 0 1 -50 310Z" stroke="black" stroke-width="80" stroke-linecap="square" stroke-miterlimit="1.5" fill="none"></path></symbol><rect x="-240" y="-336" width="480" height="672" fill="white"></rect><rect width="239" height="335" x="-119.5" y="-167.5" rx="12" ry="12" fill="white" stroke="black"></rect><use xlink:href="#VCT" height="32" x="-112.4" y="-154"></use><use xlink:href="#SCT" height="26.769" x="-109.784" y="-117"></use><use xlink:href="#SCT" height="65" x="-85.084" y="-133.165"></use><use xlink:href="#SCT" height="65" x="20.084" y="-133.165"></use><use xlink:href="#SCT" height="65" x="-85.084" y="-66.055"></use><use xlink:href="#SCT" height="65" x="20.084" y="-66.055"></use><use xlink:href="#SCT" height="65" x="-32.5" y="-99.61"></use><g transform="rotate(180)"><use xlink:href="#VCT" height="32" x="-112.4" y="-154"></use><use xlink:href="#SCT" height="26.769" x="-109.784" y="-117"></use><use xlink:href="#SCT" height="65" x="-85.084" y="-133.165"></use><use xlink:href="#SCT" height="65" x="20.084" y="-133.165"></use><use xlink:href="#SCT" height="65" x="-85.084" y="-66.055"></use><use xlink:href="#SCT" height="65" x="20.084" y="-66.055"></use><use xlink:href="#SCT" height="65" x="-32.5" y="-99.61"></use></g></svg>